<svg width="20" height="20" viewBox="0 0 20 20" fill="none" xmlns="http://www.w3.org/2000/svg">
<path d="M7.30801 12.0586C7.30293 12.0336 7.29551 12.009 7.28574 11.9855C7.27598 11.9617 7.26387 11.939 7.2498 11.9179C7.23535 11.8965 7.21895 11.8765 7.20098 11.8586C7.11035 11.7679 6.97559 11.7261 6.84863 11.7519C6.82363 11.757 6.79902 11.7644 6.77559 11.7742C6.75176 11.784 6.7291 11.7961 6.70801 11.8101C6.68652 11.8242 6.6666 11.8406 6.64863 11.8586C6.63066 11.8765 6.61426 11.8965 6.6002 11.9179C6.58613 11.939 6.57402 11.9617 6.56426 11.9855C6.55449 12.009 6.54707 12.0336 6.54199 12.0586C6.53691 12.0836 6.53418 12.1093 6.53418 12.1347C6.53418 12.1601 6.53691 12.1859 6.54199 12.2113C6.54707 12.2359 6.55449 12.2605 6.56426 12.2843C6.57402 12.3078 6.58613 12.3304 6.6002 12.3515C6.61426 12.373 6.63066 12.3929 6.64863 12.4109C6.6666 12.4289 6.68652 12.4453 6.70801 12.4597C6.7291 12.4738 6.75176 12.4859 6.77559 12.4957C6.79902 12.5054 6.82363 12.5129 6.84863 12.5179C6.87363 12.523 6.89941 12.5254 6.9248 12.5254C7.02754 12.5254 7.12832 12.4836 7.20098 12.4109C7.21895 12.3929 7.23535 12.373 7.2498 12.3515C7.26387 12.3304 7.27598 12.3078 7.28574 12.2843C7.29551 12.2605 7.30293 12.2359 7.30801 12.2113C7.31309 12.1859 7.31543 12.1601 7.31543 12.1347C7.31543 12.1093 7.31309 12.0836 7.30801 12.0586Z" fill="#2E314A"/>
<path d="M19.6094 18.8041H18.8002V14.6266V12.9135C18.8002 12.2688 18.2757 11.7442 17.6309 11.7442H16.9639V9.38086V7.8911C16.9639 7.24637 16.4393 6.7218 15.7946 6.7218H14.5954V5.58766C14.8634 5.52 15.1171 5.38184 15.3263 5.17262C15.8072 4.69176 15.928 3.95899 15.627 3.3491L14.5551 1.17742C14.4893 1.0441 14.3535 0.95969 14.2048 0.95969C14.0561 0.95969 13.9204 1.0441 13.8545 1.17742L12.7826 3.34914C12.4816 3.95895 12.6024 4.69176 13.0833 5.17266C13.2925 5.38188 13.5462 5.52004 13.8142 5.5877V6.72184H10.3906V5.04262C10.6586 4.97496 10.9123 4.8368 11.1215 4.62758C11.6024 4.14672 11.7232 3.41395 11.4222 2.80406L10.3503 0.632346C10.2845 0.499026 10.1487 0.414612 10 0.414612C9.85133 0.414612 9.71555 0.499026 9.64973 0.632346L8.57777 2.8041C8.2768 3.41395 8.39766 4.14672 8.87852 4.62758C9.08773 4.8368 9.34141 4.97496 9.60938 5.04262V6.72184H6.18582V5.58891C6.46004 5.51977 6.71152 5.37781 6.91668 5.17266C7.39758 4.6918 7.51844 3.95899 7.21742 3.34914L6.14547 1.17742C6.07965 1.0441 5.94387 0.95969 5.7952 0.95969C5.64652 0.95969 5.51074 1.0441 5.44492 1.17742L4.37297 3.34918C4.07199 3.95899 4.19285 4.6918 4.67371 5.1727C4.87887 5.37785 5.13035 5.51981 5.40457 5.58895V6.72188H4.20543C3.56066 6.72188 3.03613 7.24641 3.03613 7.89117V9.38102V11.7443H2.36906C1.7243 11.7443 1.19977 12.2688 1.19977 12.9136V14.6266V18.8042H0.390625C0.174883 18.8042 0 18.9791 0 19.1948C0 19.4105 0.174883 19.5854 0.390625 19.5854H1.59039H18.4096H19.6094C19.8251 19.5854 20 19.4105 20 19.1948C20 18.9791 19.8251 18.8041 19.6094 18.8041ZM13.6357 4.62016C13.3917 4.37617 13.3304 4.00434 13.4832 3.69489L14.2048 2.23281L14.9265 3.69489C15.0793 4.00434 15.0179 4.37617 14.7739 4.62016C14.7198 4.67434 14.6594 4.71852 14.5955 4.75399C14.3533 4.88844 14.0565 4.88844 13.8143 4.75399C13.7503 4.71856 13.6899 4.67438 13.6357 4.62016ZM9.43094 4.07512C9.18695 3.83114 9.12563 3.4593 9.27836 3.14985L10 1.68782L10.7217 3.14989C10.8744 3.45934 10.8131 3.83117 10.5691 4.07516C10.5149 4.12934 10.4546 4.17352 10.3907 4.20899C10.1485 4.34344 9.85164 4.34344 9.60941 4.20899C9.54547 4.17348 9.48512 4.12934 9.43094 4.07512ZM5.22613 4.62016C4.98211 4.37617 4.92082 4.00434 5.07355 3.69489L5.79523 2.23281L6.51691 3.69489C6.66965 4.0043 6.60832 4.37614 6.36434 4.62016C6.31016 4.67434 6.2498 4.71852 6.1859 4.75399C5.94371 4.88844 5.64687 4.88844 5.40465 4.75399C5.34066 4.71856 5.28031 4.67438 5.22613 4.62016ZM4.20543 7.50305H15.7946C16.0086 7.50305 16.1827 7.67711 16.1827 7.8911V9.1175C16.0105 9.17157 15.8251 9.19645 15.6063 9.19645C15.0237 9.19645 14.7579 9.01922 14.4213 8.79485C14.0466 8.54508 13.622 8.26203 12.8029 8.26203C11.9839 8.26203 11.5593 8.54508 11.1846 8.79485C10.8481 9.01922 10.5823 9.19645 9.99973 9.19645C9.41719 9.19645 9.15137 9.01922 8.81484 8.79485C8.44023 8.54512 8.01566 8.26203 7.1966 8.26203C6.37758 8.26203 5.95301 8.54512 5.5784 8.79485C5.24188 9.01922 4.97605 9.19645 4.39359 9.19645C4.17484 9.19645 3.98949 9.17153 3.81742 9.11754V7.8911H3.81738C3.81738 7.67711 3.99148 7.50305 4.20543 7.50305ZM18.019 18.8041H1.98102V15.0498C2.31313 15.1109 2.52469 15.2517 2.77527 15.4188C3.14988 15.6686 3.57445 15.9516 4.39355 15.9516C5.21258 15.9516 5.63715 15.6685 6.01176 15.4188C6.34828 15.1944 6.6141 15.0172 7.19656 15.0172C7.77906 15.0172 8.04492 15.1944 8.38145 15.4188C8.75605 15.6686 9.18063 15.9516 9.99969 15.9516C10.8188 15.9516 11.2434 15.6685 11.618 15.4188C11.9545 15.1944 12.2204 15.0172 12.8029 15.0172C13.3855 15.0172 13.6513 15.1944 13.9879 15.4188C14.3625 15.6685 14.7871 15.9516 15.6062 15.9516C16.4254 15.9516 16.85 15.6685 17.2246 15.4188C17.4752 15.2517 17.6868 15.1109 18.019 15.0498V18.8041ZM18.019 14.2596C17.4454 14.3326 17.1012 14.5621 16.7912 14.7687C16.4547 14.9931 16.1888 15.1703 15.6062 15.1703C15.0237 15.1703 14.7579 14.9931 14.4212 14.7687C14.0466 14.519 13.622 14.2359 12.8029 14.2359C11.9838 14.2359 11.5592 14.519 11.1846 14.7687C10.848 14.9931 10.5822 15.1703 9.99969 15.1703C9.41715 15.1703 9.15133 14.9931 8.8148 14.7687C8.4402 14.5189 8.01563 14.2359 7.19652 14.2359C6.3775 14.2359 5.95293 14.519 5.57832 14.7687C5.2418 14.9931 4.97598 15.1703 4.39352 15.1703C3.81098 15.1703 3.54516 14.9931 3.20863 14.7687C2.89867 14.5621 2.55453 14.3326 1.98102 14.2596V12.9135C1.98102 12.6995 2.15512 12.5254 2.36906 12.5254H5.36691C5.58266 12.5254 5.75754 12.3505 5.75754 12.1348C5.75754 11.9191 5.58266 11.7442 5.36691 11.7442H3.81738V9.92266C3.99715 9.95942 4.18707 9.97774 4.39355 9.97774C5.21258 9.97774 5.63715 9.69465 6.01176 9.44492C6.34828 9.22055 6.6141 9.04332 7.19656 9.04332C7.7791 9.04332 8.04492 9.22055 8.38145 9.44492C8.75605 9.69465 9.18063 9.97774 9.99969 9.97774C10.8188 9.97774 11.2434 9.69465 11.618 9.44492C11.9545 9.22055 12.2204 9.04332 12.8029 9.04332C13.3855 9.04332 13.6513 9.22055 13.9879 9.44492C14.3625 9.69469 14.7871 9.97774 15.6062 9.97774C15.8128 9.97774 16.0028 9.95938 16.1826 9.92262V11.7442H8.4816C8.26586 11.7442 8.09098 11.9191 8.09098 12.1348C8.09098 12.3506 8.26586 12.5255 8.4816 12.5255H17.6309C17.8449 12.5255 18.019 12.6996 18.019 12.9135V14.2596Z" fill="#FFFFFF"/>
<path d="M3.80957 17.8336C3.80449 17.8086 3.79707 17.784 3.7873 17.7605C3.77754 17.7371 3.76543 17.7144 3.75137 17.6929C3.73691 17.6718 3.7209 17.6519 3.70254 17.6336C3.68457 17.6156 3.66465 17.5996 3.64316 17.5851C3.62207 17.5711 3.59941 17.559 3.57598 17.5492C3.55254 17.5394 3.52793 17.532 3.50293 17.5269C3.37598 17.5015 3.24121 17.5429 3.1502 17.6336C3.13223 17.6519 3.11582 17.6718 3.10176 17.6929C3.0877 17.7144 3.07559 17.7371 3.06582 17.7605C3.05605 17.784 3.04863 17.8086 3.04355 17.8336C3.03848 17.859 3.03613 17.8843 3.03613 17.9101C3.03613 17.9355 3.03848 17.9609 3.04355 17.9863C3.04863 18.0113 3.05605 18.0359 3.06582 18.0593C3.07559 18.0828 3.0877 18.1054 3.10176 18.1269C3.11582 18.148 3.13223 18.1679 3.1502 18.1863C3.22285 18.259 3.32363 18.3008 3.42676 18.3008C3.45215 18.3008 3.47754 18.298 3.50293 18.2929C3.52793 18.2879 3.55254 18.2804 3.57598 18.2707C3.59941 18.2609 3.62207 18.2488 3.64316 18.2347C3.66465 18.2203 3.68457 18.2043 3.70254 18.1863C3.7209 18.1679 3.73691 18.148 3.75137 18.1269C3.76543 18.1054 3.77754 18.0828 3.7873 18.0593C3.79707 18.0359 3.80449 18.0113 3.80957 17.9863C3.81465 17.9609 3.81738 17.9355 3.81738 17.9101C3.81738 17.8843 3.81465 17.859 3.80957 17.8336Z" fill="#2E314A"/>
<path d="M8.0082 16.6656C8.00312 16.6406 7.9957 16.616 7.98594 16.5925C7.97617 16.5691 7.96406 16.5464 7.95 16.525C7.93555 16.5039 7.91914 16.4835 7.90117 16.4656C7.8832 16.4476 7.86328 16.4312 7.8418 16.4171C7.8207 16.4031 7.79805 16.391 7.77461 16.3812C7.75078 16.3714 7.72617 16.364 7.70156 16.3589C7.65117 16.3488 7.59922 16.3488 7.54883 16.3589C7.52383 16.364 7.49922 16.3714 7.47578 16.3812C7.45195 16.391 7.4293 16.4031 7.4082 16.4171C7.38672 16.4312 7.3668 16.4476 7.34883 16.4656C7.33086 16.4835 7.31445 16.5039 7.30039 16.525C7.28633 16.5464 7.27422 16.5691 7.26445 16.5925C7.25469 16.616 7.24727 16.6406 7.24219 16.6656C7.23711 16.691 7.23438 16.7164 7.23438 16.7417C7.23438 16.7675 7.23711 16.7929 7.24219 16.8183C7.24727 16.8433 7.25469 16.8679 7.26445 16.8914C7.27422 16.9148 7.28633 16.9375 7.30039 16.9589C7.31445 16.98 7.33086 17.0003 7.34883 17.0183C7.3668 17.0363 7.38672 17.0523 7.4082 17.0667C7.4293 17.0808 7.45195 17.0929 7.47578 17.1027C7.49922 17.1125 7.52383 17.1199 7.54883 17.125C7.57383 17.13 7.59961 17.1328 7.625 17.1328C7.65039 17.1328 7.67617 17.13 7.70156 17.125C7.72617 17.1199 7.75078 17.1125 7.77461 17.1027C7.79805 17.0929 7.8207 17.0808 7.8418 17.0667C7.86328 17.0523 7.8832 17.0363 7.90117 17.0183C7.91914 17.0003 7.93555 16.98 7.95 16.9589C7.96406 16.9375 7.97617 16.9148 7.98594 16.8914C7.9957 16.8679 8.00312 16.8433 8.0082 16.8183C8.01328 16.7929 8.01562 16.7675 8.01562 16.7417C8.01562 16.7164 8.01328 16.691 8.0082 16.6656Z" fill="#FFFFFF"/>
<path d="M12.5234 17.8335C12.5184 17.8085 12.5109 17.7839 12.5012 17.7605C12.4914 17.7371 12.4793 17.7144 12.4652 17.6929C12.4512 17.6718 12.4348 17.6519 12.4168 17.6335C12.3988 17.6156 12.3789 17.5996 12.3574 17.5851C12.3363 17.571 12.3137 17.5589 12.2898 17.5492C12.2664 17.5394 12.2418 17.532 12.2168 17.5269C12.1664 17.5167 12.1145 17.5167 12.0641 17.5269C12.0395 17.532 12.0148 17.5394 11.991 17.5492C11.9676 17.5589 11.9449 17.571 11.9238 17.5851C11.9023 17.5996 11.8824 17.6156 11.8645 17.6335C11.8465 17.6519 11.8301 17.6718 11.8156 17.6929C11.8016 17.7144 11.7895 17.7371 11.7797 17.7605C11.7699 17.7839 11.7625 17.8085 11.7574 17.8335C11.7523 17.8589 11.75 17.8843 11.75 17.9101C11.75 17.9355 11.7523 17.9609 11.7574 17.9863C11.7625 18.0113 11.7699 18.0359 11.7797 18.0593C11.7895 18.0828 11.8016 18.1054 11.8156 18.1269C11.8301 18.148 11.8465 18.1683 11.8645 18.1863C11.8824 18.2042 11.9023 18.2207 11.9238 18.2347C11.9449 18.2488 11.9676 18.2609 11.991 18.2707C12.0148 18.2804 12.0395 18.2878 12.0641 18.2929C12.0895 18.298 12.1152 18.3007 12.1406 18.3007C12.2434 18.3007 12.3441 18.2589 12.4168 18.1863C12.4348 18.1683 12.4512 18.148 12.4652 18.1269C12.4793 18.1054 12.4914 18.0828 12.5012 18.0593C12.5109 18.0359 12.5184 18.0113 12.5234 17.9863C12.5285 17.9609 12.5312 17.9355 12.5312 17.9101C12.5313 17.8843 12.5285 17.8589 12.5234 17.8335Z" fill="#2E314A"/>
<path d="M16.9561 16.8992C16.951 16.8742 16.9436 16.8496 16.9338 16.8262C16.924 16.8027 16.9119 16.7797 16.8979 16.7586C16.8838 16.7375 16.8674 16.7172 16.8494 16.6992C16.7764 16.6266 16.676 16.5848 16.5732 16.5848C16.4701 16.5848 16.3697 16.6266 16.2967 16.6992C16.2787 16.7172 16.2627 16.7375 16.2482 16.7586C16.2342 16.7797 16.2221 16.8027 16.2123 16.8262C16.2025 16.8496 16.1951 16.8742 16.19 16.8992C16.185 16.9242 16.1826 16.95 16.1826 16.9754C16.1826 17.0012 16.185 17.0266 16.19 17.052C16.1951 17.077 16.2025 17.1016 16.2123 17.125C16.2221 17.1484 16.2342 17.1711 16.2482 17.1922C16.2627 17.2137 16.2787 17.2336 16.2967 17.252C16.315 17.2699 16.335 17.2859 16.3561 17.3004C16.3775 17.3145 16.4002 17.3266 16.4236 17.3363C16.4471 17.3461 16.4717 17.3535 16.4967 17.3586C16.5221 17.3637 16.5475 17.366 16.5732 17.366C16.676 17.366 16.7768 17.3246 16.8494 17.252C16.8674 17.2336 16.8838 17.2137 16.8979 17.1922C16.9119 17.1711 16.924 17.1484 16.9338 17.125C16.9436 17.1012 16.951 17.077 16.9561 17.052C16.9611 17.0266 16.9639 17.0012 16.9639 16.9754C16.9639 16.95 16.9611 16.9242 16.9561 16.8992Z" fill="#2E314A"/>
<path d="M13.0697 10.514C13.0646 10.4894 13.0572 10.4648 13.0475 10.441C13.0377 10.4175 13.0256 10.3949 13.0115 10.3738C12.9971 10.3523 12.9807 10.3324 12.9627 10.3144C12.9447 10.2961 12.9248 10.28 12.9033 10.2656C12.8822 10.2515 12.8596 10.2394 12.8361 10.2297C12.8123 10.2199 12.7877 10.2125 12.7631 10.2074C12.7127 10.1972 12.6607 10.1972 12.6104 10.2074C12.5854 10.2125 12.5607 10.2199 12.5373 10.2297C12.5135 10.2394 12.4908 10.2515 12.4697 10.2656C12.4482 10.28 12.4283 10.2961 12.4104 10.3144C12.3924 10.3324 12.376 10.3523 12.3619 10.3738C12.3479 10.3949 12.3357 10.4175 12.326 10.441C12.3162 10.4648 12.3088 10.4894 12.3037 10.514C12.2986 10.5394 12.2959 10.5652 12.2959 10.5906C12.2959 10.616 12.2986 10.6418 12.3037 10.6668C12.3088 10.6918 12.3162 10.7164 12.326 10.7398C12.3357 10.7632 12.3479 10.7863 12.3619 10.8074C12.376 10.8289 12.3924 10.8488 12.4104 10.8668C12.4283 10.8847 12.4482 10.9011 12.4697 10.9152C12.4908 10.9293 12.5135 10.9414 12.5373 10.9511C12.5607 10.9609 12.5854 10.9683 12.6104 10.9734C12.6354 10.9785 12.6611 10.9812 12.6865 10.9812C12.7119 10.9812 12.7377 10.9785 12.7631 10.9734C12.7877 10.9683 12.8123 10.9609 12.8361 10.9511C12.8596 10.9414 12.8822 10.9293 12.9033 10.9152C12.9248 10.9011 12.9447 10.8847 12.9627 10.8668C12.9807 10.8488 12.9971 10.8289 13.0115 10.8074C13.0256 10.7863 13.0377 10.7632 13.0475 10.7398C13.0572 10.7164 13.0646 10.6918 13.0697 10.6668C13.0748 10.6418 13.0771 10.616 13.0771 10.5906C13.0771 10.5652 13.0748 10.5394 13.0697 10.514Z" fill="#FFFFFF"/>
<path d="M7.96875 9.98204C7.96367 9.95704 7.95625 9.93243 7.94648 9.909C7.93672 9.88556 7.92461 9.8629 7.91055 9.84142C7.89648 9.82032 7.88008 9.80001 7.86211 9.78204C7.84414 9.76407 7.82383 9.74767 7.80273 9.73361C7.78125 9.71954 7.75859 9.70743 7.73516 9.69767C7.71172 9.6879 7.68711 9.68048 7.66211 9.6754C7.61172 9.66525 7.55977 9.66525 7.50937 9.6754C7.48437 9.68048 7.45977 9.6879 7.43633 9.69767C7.41289 9.70743 7.39023 9.71954 7.36875 9.73361C7.34766 9.74767 7.32773 9.76407 7.30937 9.78204C7.29141 9.80001 7.27539 9.82032 7.26094 9.84142C7.24687 9.8629 7.23477 9.88556 7.225 9.909C7.21523 9.93243 7.20781 9.95704 7.20273 9.98204C7.19766 10.0074 7.19531 10.0328 7.19531 10.0586C7.19531 10.084 7.19766 10.1094 7.20273 10.1348C7.20781 10.1598 7.21523 10.1844 7.225 10.2078C7.23477 10.2313 7.24687 10.2539 7.26094 10.2754C7.27539 10.2965 7.29141 10.3164 7.30937 10.3348C7.32773 10.3527 7.34766 10.3688 7.36875 10.3832C7.39023 10.3973 7.41289 10.4094 7.43633 10.4192C7.45977 10.4289 7.48437 10.4363 7.50937 10.4414C7.53477 10.4465 7.56016 10.4492 7.58594 10.4492C7.61133 10.4492 7.63711 10.4465 7.66211 10.4414C7.68711 10.4363 7.71172 10.4289 7.73516 10.4192C7.75859 10.4094 7.78125 10.3973 7.80273 10.3832C7.82383 10.3688 7.84414 10.3527 7.86211 10.3348C7.88008 10.3164 7.89609 10.2965 7.91055 10.2754C7.92461 10.2539 7.93672 10.2313 7.94648 10.2078C7.95625 10.1844 7.96367 10.1598 7.96875 10.1348C7.97383 10.1094 7.97617 10.084 7.97617 10.0586C7.97617 10.0328 7.97383 10.0074 7.96875 9.98204Z" fill="#FFFFFF"/>
</svg>
