<svg width="20" height="20" viewBox="0 0 20 20" fill="none" xmlns="http://www.w3.org/2000/svg">
<path d="M9.99969 0C6.32375 0 3.33301 2.99074 3.33301 6.66668C3.33301 7.7702 3.60891 8.86434 4.1334 9.8348L9.63512 19.7852C9.70836 19.9178 9.84793 20 9.99969 20C10.1514 20 10.291 19.9178 10.3643 19.7852L15.868 9.83152C16.3905 8.86434 16.6664 7.77016 16.6664 6.66664C16.6664 2.99074 13.6756 0 9.99969 0ZM15.1368 9.43156L9.99969 18.7223L4.86461 9.43523C4.40766 8.58969 4.16637 7.63227 4.16637 6.66668C4.16637 3.45012 6.78316 0.833359 9.99969 0.833359C13.2162 0.833359 15.833 3.45016 15.833 6.66668C15.833 7.63223 15.5917 8.58969 15.1368 9.43156Z" fill="#FFFFFF"/>
<path d="M9.99933 3.33331C8.16136 3.33331 6.66602 4.82866 6.66602 6.66663C6.66602 8.50464 8.16136 9.99999 9.99933 9.99999C11.8373 9.99999 13.3326 8.50464 13.3326 6.66667C13.3326 4.8287 11.8373 3.33331 9.99933 3.33331ZM9.99933 9.16667C8.62074 9.16667 7.49933 8.04527 7.49933 6.66667C7.49933 5.28808 8.62074 4.16667 9.99933 4.16667C11.3779 4.16667 12.4993 5.28808 12.4993 6.66667C12.4993 8.04523 11.3779 9.16667 9.99933 9.16667Z" fill="#FFFFFF"/>
</svg>
