<svg width="27" height="27" viewBox="0 0 27 27" fill="none" xmlns="http://www.w3.org/2000/svg">
<path d="M13.5003 2.24878C19.7148 2.24878 24.7525 7.28653 24.7525 13.501C24.7525 19.7144 19.7148 24.7522 13.5003 24.7522C7.2858 24.7522 2.24805 19.7144 2.24805 13.501C2.24805 7.28653 7.2858 2.24878 13.5003 2.24878ZM13.5003 3.93628C12.2356 3.92256 10.9807 4.15982 9.80829 4.63431C8.63588 5.1088 7.56922 5.81111 6.67004 6.70059C5.77086 7.59007 5.05703 8.64905 4.56985 9.81625C4.08267 10.9834 3.83182 12.2357 3.83182 13.5005C3.83182 14.7653 4.08267 16.0175 4.56985 17.1847C5.05703 18.3519 5.77086 19.4109 6.67004 20.3003C7.56922 21.1898 8.63588 21.8921 9.80829 22.3666C10.9807 22.8411 12.2356 23.0784 13.5003 23.0647C16.0113 23.0261 18.4065 22.0016 20.1686 20.2123C21.9307 18.4229 22.9184 16.0124 22.9184 13.501C22.9184 10.9897 21.9307 8.57913 20.1686 6.78979C18.4065 5.00046 16.0113 3.97592 13.5003 3.9374V3.93628ZM13.5003 15.1852C15.3352 15.1852 17.0553 15.922 18.3164 17.2057C18.4643 17.3669 18.5437 17.5794 18.5379 17.7981C18.5321 18.0168 18.4416 18.2248 18.2854 18.378C18.1292 18.5313 17.9196 18.6179 17.7008 18.6195C17.482 18.6212 17.2711 18.5378 17.1127 18.3869C16.6418 17.9067 16.0796 17.5254 15.4593 17.2655C14.8389 17.0057 14.1729 16.8725 13.5003 16.8738C12.8262 16.8728 12.1588 17.0068 11.5373 17.2681C10.9159 17.5293 10.3532 17.9124 9.8823 18.3948C9.80474 18.474 9.71234 18.5371 9.61037 18.5806C9.50841 18.6241 9.39889 18.647 9.28805 18.6482C9.17721 18.6493 9.06723 18.6286 8.96439 18.5873C8.86155 18.5459 8.76786 18.4847 8.68867 18.4072C8.60948 18.3296 8.54635 18.2372 8.50287 18.1352C8.45939 18.0333 8.43643 17.9237 8.43528 17.8129C8.43413 17.7021 8.45482 17.5921 8.49617 17.4892C8.53753 17.3864 8.59873 17.2927 8.6763 17.2135C9.3044 16.5708 10.0548 16.0603 10.8833 15.7121C11.7118 15.3639 12.6016 15.1852 13.5003 15.1863V15.1852ZM10.1253 9.84478C10.3132 9.83946 10.5003 9.87189 10.6755 9.94014C10.8507 10.0084 11.0105 10.1111 11.1453 10.2421C11.2801 10.3732 11.3873 10.53 11.4604 10.7031C11.5336 10.8763 11.5713 11.0624 11.5713 11.2505C11.5713 11.4385 11.5336 11.6246 11.4604 11.7978C11.3873 11.971 11.2801 12.1277 11.1453 12.2588C11.0105 12.3899 10.8507 12.4925 10.6755 12.5608C10.5003 12.629 10.3132 12.6615 10.1253 12.6562C9.75234 12.6562 9.39465 12.508 9.13093 12.2443C8.8672 11.9806 8.71905 11.6229 8.71905 11.2499C8.71905 10.8769 8.8672 10.5193 9.13093 10.2555C9.39465 9.99181 9.75234 9.84365 10.1253 9.84365V9.84478ZM16.8753 9.84478C17.0632 9.83946 17.2503 9.87189 17.4255 9.94014C17.6007 10.0084 17.7605 10.1111 17.8953 10.2421C18.0301 10.3732 18.1373 10.53 18.2104 10.7031C18.2836 10.8763 18.3213 11.0624 18.3213 11.2505C18.3213 11.4385 18.2836 11.6246 18.2104 11.7978C18.1373 11.971 18.0301 12.1277 17.8953 12.2588C17.7605 12.3899 17.6007 12.4925 17.4255 12.5608C17.2503 12.629 17.0632 12.6615 16.8753 12.6562C16.5094 12.6458 16.1619 12.4932 15.9067 12.2307C15.6516 11.9682 15.5088 11.6165 15.5088 11.2505C15.5088 10.8844 15.6516 10.5327 15.9067 10.2703C16.1619 10.0078 16.5094 9.85513 16.8753 9.84478Z" fill="#C4C4C4"/>
</svg>
