<svg width="21" height="21" viewBox="0 0 21 21" fill="none" xmlns="http://www.w3.org/2000/svg">
<g clip-path="url(#clip0)">
<path d="M10.4999 3.60675L9.5588 2.63944C7.34986 0.368815 3.29949 1.15238 1.83736 4.00707C1.15092 5.34975 0.99605 7.28832 2.24949 9.76238C3.45699 12.1446 5.96911 14.9979 10.4999 18.1059C15.0306 14.9979 17.5414 12.1446 18.7502 9.76238C20.0037 7.287 19.8501 5.34975 19.1624 4.00707C17.7002 1.15238 13.6499 0.367503 11.4409 2.63813L10.4999 3.60675ZM10.4999 19.6875C-9.6247 6.38925 4.30355 -3.99 10.2689 1.50019C10.3476 1.57238 10.425 1.64719 10.4999 1.72463C10.5739 1.64726 10.651 1.57283 10.7309 1.5015C16.6949 -3.99262 30.6244 6.38794 10.4999 19.6875Z" fill="#FFFFFF"/>
</g>
<defs>
<clipPath id="clip0">
<rect width="21" height="21" fill="#FFFFFF"/>
</clipPath>
</defs>
</svg>
