<svg width="21" height="25" viewBox="0 0 21 25" fill="none" xmlns="http://www.w3.org/2000/svg">
<path d="M18 12.6562H11.601L7.851 7.59375H2.25C1.65345 7.59442 1.0815 7.86132 0.659668 8.33588C0.23784 8.81043 0.000595661 9.45388 0 10.125V15.1875C0.000397108 15.6349 0.15856 16.0639 0.439778 16.3802C0.720997 16.6966 1.1023 16.8746 1.5 16.875V22.7812C1.5004 23.2287 1.65856 23.6576 1.93978 23.974C2.221 24.2904 2.6023 24.4683 3 24.4688H6C6.3977 24.4683 6.779 24.2904 7.06022 23.974C7.34144 23.6576 7.4996 23.2287 7.5 22.7812V16.875H6V22.7812H3V15.1875H1.5V10.125C1.5 9.90122 1.57902 9.68661 1.71967 9.52838C1.86032 9.37014 2.05109 9.28125 2.25 9.28125H7.149L10.899 14.3438H18C18.1989 14.3438 18.3897 14.4326 18.5303 14.5909C18.671 14.7491 18.75 14.9637 18.75 15.1875V17.7188H17.25V22.7812H15V17.7188H13.5V22.7812C13.5004 23.2287 13.6586 23.6576 13.9398 23.974C14.221 24.2904 14.6023 24.4683 15 24.4688H17.25C17.6477 24.4683 18.029 24.2904 18.3102 23.974C18.5914 23.6576 18.7496 23.2287 18.75 22.7812V19.4062C19.1477 19.4058 19.529 19.2279 19.8102 18.9115C20.0914 18.5951 20.2496 18.1662 20.25 17.7188V15.1875C20.2494 14.5164 20.0122 13.8729 19.5903 13.3984C19.1685 12.9238 18.5966 12.6569 18 12.6562Z" fill="#FFFFFF"/>
<path d="M16.125 11.8125C15.6058 11.8125 15.0983 11.6393 14.6666 11.3148C14.235 10.9903 13.8985 10.5291 13.6998 9.98949C13.5011 9.44988 13.4492 8.8561 13.5504 8.28325C13.6517 7.7104 13.9017 7.1842 14.2688 6.7712C14.636 6.3582 15.1037 6.07694 15.6129 5.96299C16.1221 5.84905 16.6499 5.90753 17.1295 6.13104C17.6092 6.35456 18.0192 6.73307 18.3076 7.21871C18.596 7.70435 18.75 8.2753 18.75 8.85938C18.7492 9.64232 18.4724 10.3929 17.9803 10.9466C17.4882 11.5002 16.821 11.8116 16.125 11.8125ZM16.125 7.59375C15.9025 7.59375 15.685 7.66798 15.5 7.80705C15.315 7.94612 15.1708 8.14378 15.0856 8.37504C15.0005 8.60631 14.9782 8.86078 15.0216 9.10629C15.065 9.3518 15.1722 9.57731 15.3295 9.75431C15.4868 9.93131 15.6873 10.0518 15.9055 10.1007C16.1238 10.1495 16.35 10.1245 16.5555 10.0287C16.7611 9.93287 16.9368 9.77065 17.0604 9.56252C17.184 9.35439 17.25 9.10969 17.25 8.85938C17.2496 8.52385 17.131 8.20219 16.9201 7.96494C16.7092 7.72768 16.4232 7.5942 16.125 7.59375Z" fill="#FFFFFF"/>
<path d="M4.5 6.75C3.90666 6.75 3.32664 6.55206 2.83329 6.18121C2.33994 5.81036 1.95543 5.28326 1.72836 4.66656C1.5013 4.04986 1.44189 3.37126 1.55765 2.71657C1.6734 2.06189 1.95912 1.46052 2.37868 0.988516C2.79824 0.516514 3.33279 0.195076 3.91473 0.0648512C4.49667 -0.0653739 5.09987 0.00146232 5.64805 0.256908C6.19623 0.512354 6.66477 0.944936 6.99441 1.49995C7.32405 2.05497 7.5 2.70749 7.5 3.375C7.49921 4.26983 7.18288 5.12776 6.62044 5.7605C6.05801 6.39324 5.29541 6.74911 4.5 6.75V6.75ZM4.5 1.6875C4.20333 1.6875 3.91332 1.78647 3.66665 1.9719C3.41997 2.15732 3.22771 2.42087 3.11418 2.72922C3.00065 3.03757 2.97095 3.37687 3.02882 3.70422C3.0867 4.03156 3.22956 4.33224 3.43934 4.56824C3.64912 4.80425 3.91639 4.96496 4.20737 5.03008C4.49834 5.09519 4.79994 5.06177 5.07403 4.93405C5.34812 4.80633 5.58238 4.59003 5.74721 4.31253C5.91203 4.03502 6 3.70876 6 3.375C5.9996 2.92759 5.84144 2.49862 5.56022 2.18225C5.279 1.86588 4.8977 1.68795 4.5 1.6875V1.6875Z" fill="#FFFFFF"/>
</svg>
