<svg width="22" height="22" viewBox="0 0 22 22" fill="none" xmlns="http://www.w3.org/2000/svg">
<path d="M18.5635 5.67188H14.9534V4.8125C14.9528 4.31125 14.7535 3.83069 14.399 3.47625C14.0446 3.12182 13.564 2.92244 13.0628 2.92188H8.93779C8.43654 2.92244 7.95598 3.12182 7.60154 3.47625C7.24711 3.83069 7.04773 4.31125 7.04716 4.8125V5.67188H3.43848C3.1195 5.67224 2.81369 5.79911 2.58814 6.02466C2.36259 6.25021 2.23572 6.55602 2.23535 6.875V17.875C2.23572 18.194 2.36259 18.4998 2.58814 18.7253C2.81369 18.9509 3.1195 19.0778 3.43848 19.0781H18.5635C18.8825 19.0778 19.1883 18.9509 19.4138 18.7253C19.6394 18.4998 19.7662 18.194 19.7666 17.875V6.875C19.7662 6.55602 19.6394 6.25021 19.4138 6.02466C19.1883 5.79911 18.8825 5.67224 18.5635 5.67188V5.67188ZM8.07841 4.8125C8.07869 4.58466 8.16932 4.36624 8.33042 4.20513C8.49153 4.04403 8.70995 3.9534 8.93779 3.95312H13.0628C13.2906 3.9534 13.5091 4.04403 13.6702 4.20513C13.8313 4.36624 13.9219 4.58466 13.9222 4.8125V5.67188H8.07841V4.8125ZM3.43848 6.70312H18.5635C18.609 6.70319 18.6527 6.72132 18.6849 6.75354C18.7172 6.78576 18.7353 6.82944 18.7354 6.875V10.5517C16.3675 11.8608 13.706 12.5473 11.0003 12.5469C8.29514 12.5472 5.63416 11.861 3.2666 10.5524V6.875C3.26667 6.82944 3.2848 6.78576 3.31702 6.75354C3.34924 6.72132 3.39291 6.70319 3.43848 6.70312V6.70312ZM18.5635 18.0469H3.43848C3.39291 18.0468 3.34924 18.0287 3.31702 17.9965C3.2848 17.9642 3.26667 17.9206 3.2666 17.875V11.7202C5.66165 12.9414 8.31186 13.5781 11.0003 13.5781C13.6892 13.5781 16.3399 12.9412 18.7354 11.7195V17.875C18.7353 17.9206 18.7172 17.9642 18.6849 17.9965C18.6527 18.0287 18.609 18.0468 18.5635 18.0469V18.0469ZM9.45341 10.3125C9.45341 10.1757 9.50774 10.0446 9.60444 9.9479C9.70114 9.8512 9.83229 9.79688 9.96904 9.79688H12.0315C12.1683 9.79688 12.2994 9.8512 12.3961 9.9479C12.4928 10.0446 12.5472 10.1757 12.5472 10.3125C12.5472 10.4493 12.4928 10.5804 12.3961 10.6771C12.2994 10.7738 12.1683 10.8281 12.0315 10.8281H9.96904C9.83229 10.8281 9.70114 10.7738 9.60444 10.6771C9.50774 10.5804 9.45341 10.4493 9.45341 10.3125Z" fill="#FFFFFF"/>
</svg>
