<svg width="22" height="16" viewBox="0 0 22 16" fill="none" xmlns="http://www.w3.org/2000/svg">
<path d="M21.3555 0.690353H20.6651C20.4941 0.690353 20.3303 0.758331 20.2094 0.879181L16.9463 4.14212H16.3359L15.7675 1.86897C15.6959 1.58195 15.4381 1.38071 15.1423 1.38071H13.7158V0.644531C13.7158 0.288528 13.4271 0 13.0712 0H2.02525C1.7478 0 1.50157 0.177582 1.41379 0.440765L0.0330824 4.58289C0.00135938 4.67772 -0.00770436 4.77876 0.00656264 4.87779L0.696916 9.71043C0.721086 9.87962 0.811555 10.0324 0.948183 10.1349L3.70976 12.206C3.82121 12.2896 3.957 12.3349 4.09648 12.3349H6.59085L7.09238 12.8364C7.2134 12.9573 7.37721 13.0252 7.54825 13.0252H8.58403L9.77339 14.8093C9.8929 14.9885 10.0941 15.0963 10.3097 15.0963H11.6904C11.9678 15.0963 12.2141 14.9189 12.3018 14.6555L12.8453 13.0252H13.4163C13.6604 13.0252 13.8836 12.8873 13.9927 12.6689L14.1599 12.3349H16.256L18.1384 14.2173C18.39 14.4689 18.798 14.4689 19.0498 14.2173L20.4305 12.8364C20.6478 12.6192 20.6814 12.2788 20.511 12.0232L19.6012 10.6583C19.4981 10.5037 19.5186 10.2966 19.65 10.1651L20.4305 9.38464C20.5513 9.26379 20.6193 9.09981 20.6193 8.92894V7.00995L21.932 4.38466C21.9769 4.29503 22 4.19633 22 4.0963V1.33488C22 0.978882 21.7115 0.690353 21.3555 0.690353V0.690353ZM20.711 3.94423L19.3982 6.56952C19.3534 6.65915 19.3302 6.75767 19.3302 6.85788V8.6619L18.7388 9.25339C18.174 9.81769 18.0857 10.7093 18.5286 11.3733L19.1454 12.2986L18.5941 12.85L16.9787 11.2346C16.8579 11.1138 16.6939 11.0458 16.5228 11.0458H13.7614C13.5174 11.0458 13.2941 11.1838 13.1849 11.4022L13.0179 11.7362H12.3807C12.1033 11.7362 11.857 11.9138 11.7693 12.1769L11.2258 13.8074H10.6546L9.46523 12.0232C9.34572 11.8439 9.14447 11.7362 8.92896 11.7362H7.81513L7.3136 11.2346C7.19275 11.1138 7.02876 11.0458 6.8579 11.0458H4.31116L1.93529 9.26379L1.30419 4.84624L2.48985 1.28906H12.4265V2.02524C12.4265 2.38124 12.7152 2.66977 13.0711 2.66977H14.6389L15.2073 4.94308C15.2789 5.22993 15.5367 5.43118 15.8325 5.43118H17.2134C17.3842 5.43118 17.5482 5.36337 17.6691 5.24252L20.711 2.20047V3.94423Z" fill="#FFFFFF"/>
</svg>
