<svg width="22" height="22" viewBox="0 0 22 22" fill="none" xmlns="http://www.w3.org/2000/svg">
<path d="M11 0C4.93442 0 0 4.93442 0 11C0 17.0656 4.93442 22 11 22C17.0656 22 22 17.0656 22 11C22 4.93442 17.0656 0 11 0ZM11 1.83333C16.0737 1.83333 20.1667 5.92625 20.1667 11C20.1667 16.0737 16.0737 20.1667 11 20.1667C5.92625 20.1667 1.83333 16.0737 1.83333 11C1.83333 5.92625 5.92625 1.83333 11 1.83333ZM6.875 7.33333C6.51033 7.33333 6.16059 7.4782 5.90273 7.73606C5.64487 7.99392 5.5 8.34366 5.5 8.70833C5.5 9.07301 5.64487 9.42274 5.90273 9.68061C6.16059 9.93847 6.51033 10.0833 6.875 10.0833C7.23967 10.0833 7.58941 9.93847 7.84727 9.68061C8.10513 9.42274 8.25 9.07301 8.25 8.70833C8.25 8.34366 8.10513 7.99392 7.84727 7.73606C7.58941 7.4782 7.23967 7.33333 6.875 7.33333ZM15.125 7.33333C14.7603 7.33333 14.4106 7.4782 14.1527 7.73606C13.8949 7.99392 13.75 8.34366 13.75 8.70833C13.75 9.07301 13.8949 9.42274 14.1527 9.68061C14.4106 9.93847 14.7603 10.0833 15.125 10.0833C15.4897 10.0833 15.8394 9.93847 16.0973 9.68061C16.3551 9.42274 16.5 9.07301 16.5 8.70833C16.5 8.34366 16.3551 7.99392 16.0973 7.73606C15.8394 7.4782 15.4897 7.33333 15.125 7.33333ZM6.24433 13.75L4.6695 14.6667C5.93725 16.8547 8.29308 18.3333 11 18.3333C13.7069 18.3333 16.0627 16.8547 17.3305 14.6667L15.7557 13.75C15.2752 14.5864 14.5824 15.2812 13.7474 15.7641C12.9123 16.247 11.9646 16.5008 11 16.5C10.0354 16.5008 9.08765 16.247 8.2526 15.7641C7.41755 15.2812 6.72478 14.5864 6.24433 13.75Z" fill="#C4C4C4"/>
</svg>
