<svg width="20" height="20" viewBox="0 0 20 20" fill="none" xmlns="http://www.w3.org/2000/svg">
<path d="M8.33366 3.33333C7.4496 3.33333 6.60176 3.68452 5.97664 4.30964C5.35152 4.93477 5.00033 5.78261 5.00033 6.66667C5.00033 7.55072 5.35152 8.39857 5.97664 9.02369C6.60176 9.64881 7.4496 10 8.33366 10C9.21771 10 10.0656 9.64881 10.6907 9.02369C11.3158 8.39857 11.667 7.55072 11.667 6.66667C11.667 5.78261 11.3158 4.93477 10.6907 4.30964C10.0656 3.68452 9.21771 3.33333 8.33366 3.33333ZM3.33366 6.66667C3.33366 5.34058 3.86044 4.06882 4.79813 3.13113C5.73581 2.19345 7.00758 1.66667 8.33366 1.66667C9.65974 1.66667 10.9315 2.19345 11.8692 3.13113C12.8069 4.06882 13.3337 5.34058 13.3337 6.66667C13.3337 7.99275 12.8069 9.26452 11.8692 10.2022C10.9315 11.1399 9.65974 11.6667 8.33366 11.6667C7.00758 11.6667 5.73581 11.1399 4.79813 10.2022C3.86044 9.26452 3.33366 7.99275 3.33366 6.66667V6.66667ZM14.0237 3.13083C14.1011 3.05335 14.193 2.99189 14.2941 2.94995C14.3953 2.90801 14.5037 2.88643 14.6132 2.88643C14.7228 2.88643 14.8312 2.90801 14.9324 2.94995C15.0335 2.99189 15.1254 3.05335 15.2028 3.13083C15.6672 3.59514 16.0356 4.14637 16.2869 4.75305C16.5382 5.35974 16.6676 6.00999 16.6676 6.66667C16.6676 7.32335 16.5382 7.9736 16.2869 8.58028C16.0356 9.18696 15.6672 9.7382 15.2028 10.2025C15.1254 10.2799 15.0335 10.3413 14.9323 10.3832C14.8312 10.4251 14.7227 10.4467 14.6132 10.4467C14.5037 10.4467 14.3953 10.4251 14.2942 10.3832C14.193 10.3413 14.1011 10.2799 14.0237 10.2025C13.9462 10.1251 13.8848 10.0332 13.8429 9.932C13.801 9.83084 13.7794 9.72241 13.7794 9.61292C13.7794 9.50342 13.801 9.395 13.8429 9.29384C13.8848 9.19268 13.9462 9.10076 14.0237 9.02333C14.6486 8.39824 14.9996 7.55055 14.9996 6.66667C14.9996 5.78279 14.6486 4.93509 14.0237 4.31C13.9462 4.23261 13.8847 4.1407 13.8428 4.03953C13.8008 3.93837 13.7793 3.82993 13.7793 3.72042C13.7793 3.6109 13.8008 3.50247 13.8428 3.4013C13.8847 3.30014 13.9462 3.20823 14.0237 3.13083V3.13083ZM14.6087 13.9642C14.6624 13.75 14.7989 13.5659 14.9883 13.4523C15.1777 13.3387 15.4044 13.3049 15.6187 13.3583C16.7253 13.635 17.4262 14.3417 17.8287 15.1483C18.2187 15.9275 18.3337 16.7983 18.3337 17.5C18.3337 17.721 18.2459 17.933 18.0896 18.0893C17.9333 18.2455 17.7213 18.3333 17.5003 18.3333C17.2793 18.3333 17.0674 18.2455 16.9111 18.0893C16.7548 17.933 16.667 17.721 16.667 17.5C16.667 16.9525 16.5737 16.3642 16.3387 15.8933C16.1162 15.4492 15.7745 15.115 15.2145 14.975C15.0003 14.9213 14.8162 14.7847 14.7026 14.5954C14.589 14.406 14.5552 14.1793 14.6087 13.965V13.9642ZM5.41699 15C4.36699 15 3.33366 16.0108 3.33366 17.5C3.33366 17.721 3.24586 17.933 3.08958 18.0893C2.9333 18.2455 2.72134 18.3333 2.50033 18.3333C2.27931 18.3333 2.06735 18.2455 1.91107 18.0893C1.75479 17.933 1.66699 17.721 1.66699 17.5C1.66699 15.3067 3.24449 13.3333 5.41699 13.3333H11.2503C13.4228 13.3333 15.0003 15.3067 15.0003 17.5C15.0003 17.721 14.9125 17.933 14.7562 18.0893C14.6 18.2455 14.388 18.3333 14.167 18.3333C13.946 18.3333 13.734 18.2455 13.5777 18.0893C13.4215 17.933 13.3337 17.721 13.3337 17.5C13.3337 16.0108 12.3003 15 11.2503 15H5.41699Z" fill="#4A6568"/>
</svg>
