<svg width="20" height="20" viewBox="0 0 20 20" fill="none" xmlns="http://www.w3.org/2000/svg">
<path d="M17.3333 2.01967V1.33333C17.3333 0.596954 16.7364 0 16 0C15.2636 0 14.6667 0.596954 14.6667 1.33333V2H13.3333V1.33333C13.3333 0.596954 12.7364 0 12 0C11.2636 0 10.6667 0.596954 10.6667 1.33333V2H9.33333V1.33333C9.33333 0.596954 8.73638 0 8 0C7.26362 0 6.66667 0.596954 6.66667 1.33333V2H5.33333V1.33333C5.33333 0.596954 4.73638 0 4 0C3.26362 0 2.66667 0.596954 2.66667 1.33333V2.01967C1.14942 2.19082 0.0020696 3.47313 0 5V17C0.00183704 18.6561 1.34391 19.9982 3 20H17C18.6561 19.9982 19.9982 18.6561 20 17V5C19.9979 3.47313 18.8506 2.19082 17.3333 2.01967V2.01967ZM15.3333 1.33333C15.3333 0.965144 15.6318 0.666667 16 0.666667C16.3682 0.666667 16.6667 0.965144 16.6667 1.33333V3.33333C16.6667 3.70152 16.3682 4 16 4C15.6318 4 15.3333 3.70152 15.3333 3.33333V1.33333ZM11.3333 1.33333C11.3333 0.965144 11.6318 0.666667 12 0.666667C12.3682 0.666667 12.6667 0.965144 12.6667 1.33333V3.33333C12.6667 3.70152 12.3682 4 12 4C11.6318 4 11.3333 3.70152 11.3333 3.33333V1.33333ZM7.33333 1.33333C7.33333 0.965144 7.63181 0.666667 8 0.666667C8.36819 0.666667 8.66667 0.965144 8.66667 1.33333V3.33333C8.66667 3.70152 8.36819 4 8 4C7.63181 4 7.33333 3.70152 7.33333 3.33333V1.33333ZM3.33333 1.33333C3.33333 0.965144 3.63181 0.666667 4 0.666667C4.36819 0.666667 4.66667 0.965144 4.66667 1.33333V3.33333C4.66667 3.70152 4.36819 4 4 4C3.63181 4 3.33333 3.70152 3.33333 3.33333V1.33333ZM17 19.3333H3C1.71194 19.3319 0.668136 18.2881 0.666667 17V6H19.3333V17C19.3319 18.2881 18.2881 19.3319 17 19.3333ZM19.3333 5.33333H0.666667V5C0.668882 3.84146 1.52013 2.85969 2.66667 2.69333V3.33333C2.66667 4.06971 3.26362 4.66667 4 4.66667C4.73638 4.66667 5.33333 4.06971 5.33333 3.33333V2.66667H6.66667V3.33333C6.66667 4.06971 7.26362 4.66667 8 4.66667C8.73638 4.66667 9.33333 4.06971 9.33333 3.33333V2.66667H10.6667V3.33333C10.6667 4.06971 11.2636 4.66667 12 4.66667C12.7364 4.66667 13.3333 4.06971 13.3333 3.33333V2.66667H14.6667V3.33333C14.6667 4.06971 15.2636 4.66667 16 4.66667C16.7364 4.66667 17.3333 4.06971 17.3333 3.33333V2.69333C18.4799 2.85969 19.3311 3.84146 19.3333 5V5.33333Z" fill="#FFFFFF"/>
<path d="M10 6.66666C6.68629 6.66666 4 9.35295 4 12.6667C4 15.9804 6.68629 18.6667 10 18.6667C13.3137 18.6667 16 15.9804 16 12.6667C15.9961 9.35455 13.3121 6.67051 10 6.66666ZM10 18C7.90887 18.0028 6.00968 16.7814 5.14475 14.8775C4.27982 12.9736 4.60928 10.7398 5.987 9.16666C6.312 9.40532 6.33333 9.91332 6.33333 10.6667C6.36242 11.475 6.76747 12.2233 7.42833 12.6897C7.28604 12.6747 7.14308 12.6671 7 12.6667C6.62363 12.6176 6.2587 12.8174 6.09733 13.161C5.88033 13.686 6.27567 14.4137 6.764 14.9023C6.92375 15.0915 7.05636 15.3019 7.158 15.5277C7.55367 16.2897 8.095 17.3333 10 17.3333C12.4477 17.3333 14 15.2237 14 14.3333C13.9931 13.9919 13.9331 13.6536 13.822 13.3307C14.4854 12.5894 14.5032 11.4731 13.8636 10.7111C13.2241 9.94913 12.1217 9.77303 11.2765 10.2979C10.4314 10.8227 10.1005 11.8889 10.5 12.8C10.0254 12.4526 9.72216 11.9188 9.66667 11.3333C9.67366 10.9808 9.45729 10.6623 9.127 10.539C8.66588 10.358 8.14265 10.4445 7.76433 10.7643C7.54685 11.0592 7.43263 11.4176 7.43933 11.784C7.16313 11.4766 7.00713 11.0799 7 10.6667C7 9.97699 7 9.15032 6.46233 8.68666C8.23666 7.10916 10.8405 6.89542 12.8483 8.16246C14.8561 9.4295 15.7838 11.8718 15.1235 14.1523C14.4632 16.4328 12.3742 18.0017 10 18V18ZM11 12C11 11.2636 11.597 10.6667 12.3333 10.6667C13.0697 10.6667 13.6667 11.2636 13.6667 12C13.6667 12.7364 13.0697 13.3333 12.3333 13.3333C11.597 13.3333 11 12.7364 11 12ZM12.3333 14C12.6549 14 12.9716 13.922 13.2563 13.7727C13.3045 13.9558 13.3303 14.144 13.3333 14.3333C13.3333 14.8333 12.1197 16.6667 10 16.6667C8.5 16.6667 8.11867 15.9333 7.74967 15.2207C7.61967 14.9327 7.44633 14.6664 7.23567 14.431C6.80667 14.0017 6.65433 13.5587 6.71333 13.4163C6.73867 13.355 6.878 13.3333 7 13.3333C7.25115 13.328 7.50183 13.3573 7.745 13.4203C8.11195 14.2171 8.72788 14.873 9.5 15.2893C9.6598 15.3806 9.86332 15.3251 9.95467 15.1653C10.0459 15.0055 9.99042 14.802 9.83067 14.7107C8.96193 14.2662 8.34214 13.4512 8.146 12.4953C8.04024 12.0768 8.07119 11.6354 8.23433 11.2357C8.42102 11.108 8.6577 11.078 8.87033 11.155C8.95155 11.1744 9.00656 11.2501 9 11.3333C9 12.2033 9.81467 14 12.3333 14V14Z" fill="#FFFFFF"/>
</svg>
