<svg width="20" height="20" viewBox="0 0 20 20" fill="none" xmlns="http://www.w3.org/2000/svg">
<path fill-rule="evenodd" clip-rule="evenodd" d="M1.25 10C1.25 12.3206 2.17187 14.5462 3.81282 16.1872C5.45376 17.8281 7.67936 18.75 10 18.75C12.3206 18.75 14.5462 17.8281 16.1872 16.1872C17.8281 14.5462 18.75 12.3206 18.75 10C18.75 7.67936 17.8281 5.45376 16.1872 3.81282C14.5462 2.17187 12.3206 1.25 10 1.25C7.67936 1.25 5.45376 2.17187 3.81282 3.81282C2.17187 5.45376 1.25 7.67936 1.25 10ZM20 10C20 12.6522 18.9464 15.1957 17.0711 17.0711C15.1957 18.9464 12.6522 20 10 20C7.34784 20 4.8043 18.9464 2.92893 17.0711C1.05357 15.1957 0 12.6522 0 10C0 7.34784 1.05357 4.8043 2.92893 2.92893C4.8043 1.05357 7.34784 0 10 0C12.6522 0 15.1957 1.05357 17.0711 2.92893C18.9464 4.8043 20 7.34784 20 10ZM14.375 9.375C14.5408 9.375 14.6997 9.44085 14.8169 9.55806C14.9342 9.67527 15 9.83424 15 10C15 10.1658 14.9342 10.3247 14.8169 10.4419C14.6997 10.5592 14.5408 10.625 14.375 10.625H7.13375L9.8175 13.3075C9.87561 13.3656 9.92171 13.4346 9.95315 13.5105C9.9846 13.5864 10.0008 13.6678 10.0008 13.75C10.0008 13.8322 9.9846 13.9136 9.95315 13.9895C9.92171 14.0654 9.87561 14.1344 9.8175 14.1925C9.75939 14.2506 9.6904 14.2967 9.61448 14.3282C9.53855 14.3596 9.45718 14.3758 9.375 14.3758C9.29282 14.3758 9.21145 14.3596 9.13552 14.3282C9.0596 14.2967 8.99061 14.2506 8.9325 14.1925L5.1825 10.4425C5.1243 10.3844 5.07812 10.3155 5.04661 10.2395C5.0151 10.1636 4.99888 10.0822 4.99888 10C4.99888 9.91779 5.0151 9.83639 5.04661 9.76046C5.07812 9.68453 5.1243 9.61556 5.1825 9.5575L8.9325 5.8075C9.04986 5.69014 9.20903 5.62421 9.375 5.62421C9.54097 5.62421 9.70014 5.69014 9.8175 5.8075C9.93486 5.92486 10.0008 6.08403 10.0008 6.25C10.0008 6.41597 9.93486 6.57514 9.8175 6.6925L7.13375 9.375H14.375Z" fill="#4A6568"/>
</svg>
